<svg xmlns="http://www.w3.org/2000/svg" width="25" height="24" fill="none"><g fill="#000" clip-path="url(#a)"><path d="M17.591 0H6.584A6.504 6.504 0 0 0 .087 6.497v11.007A6.504 6.504 0 0 0 6.584 24h11.007a6.503 6.503 0 0 0 6.496-6.496V6.497A6.503 6.503 0 0 0 17.591 0m-5.503 18.562A6.57 6.57 0 0 1 5.525 12a6.57 6.57 0 0 1 6.562-6.562A6.57 6.57 0 0 1 18.65 12a6.57 6.57 0 0 1-6.562 6.562m6.719-11.577a1.94 1.94 0 0 1-1.939-1.939 1.94 1.94 0 0 1 1.939-1.939 1.94 1.94 0 0 1 1.939 1.939 1.94 1.94 0 0 1-1.939 1.939m-6.72-.14c-2.843 0-5.155 2.313-5.155 5.155s2.313 5.155 5.155 5.155 5.155-2.313 5.155-5.155-2.313-5.155-5.155-5.155m6.72-2.331a.533.533 0 0 0 0 1.064.533.533 0 0 0 0-1.064"/></g><defs><clipPath id="a"><path fill="#fff" d="M.087 0h24v24h-24z"/></clipPath></defs></svg>