<svg xmlns="http://www.w3.org/2000/svg" width="25" height="24" fill="none" xmlns:v="https://vecta.io/nano"><g clip-path="url(#A)" fill="#000"><path d="M17.591 0H6.584C3.002 0 .087 2.914.087 6.497v11.007C.087 21.086 3.002 24 6.584 24h11.007c3.582 0 6.496-2.914 6.496-6.496V6.497C24.087 2.914 21.173 0 17.591 0h0zm-5.503 18.562A6.57 6.57 0 0 1 5.525 12a6.57 6.57 0 0 1 6.562-6.562A6.57 6.57 0 0 1 18.65 12a6.57 6.57 0 0 1-6.562 6.562zm6.719-11.577a1.94 1.94 0 0 1-1.939-1.939 1.94 1.94 0 0 1 1.939-1.939 1.94 1.94 0 0 1 1.939 1.939 1.94 1.94 0 0 1-1.939 1.939zm-6.72-.14c-2.843 0-5.155 2.313-5.155 5.155s2.313 5.155 5.155 5.155 5.155-2.313 5.155-5.155-2.313-5.155-5.155-5.155zm6.72-2.331c-.293 0-.532.239-.532.532s.239.532.532.532.532-.239.532-.532-.239-.532-.532-.532z"/></g><defs><clipPath id="A"><path fill="#fff" transform="translate(.087)" d="M0 0h24v24H0z"/></clipPath></defs></svg>